<?xml version="1.0" encoding="iso-8859-1"?>
<!-- Generator: Adobe Illustrator 19.0.0, SVG Export Plug-In . SVG Version: 6.00 Build 0)  -->
<svg version="1.1" id="Layer_1" xmlns="http://www.w3.org/2000/svg" xmlns:xlink="http://www.w3.org/1999/xlink" x="0px" y="0px"
	 viewBox="0 0 512.003 512.003" style="enable-background:new 0 0 512.003 512.003;" xml:space="preserve">
<g>
	<g>
		<g>
			<path d="M256.002,42.668h42.667c4.713,0,8.533-3.82,8.533-8.533s-3.82-8.533-8.533-8.533h-42.667
				c-4.713,0-8.533,3.821-8.533,8.533S251.289,42.668,256.002,42.668z"/>
			<path d="M221.868,42.668h8.533c4.713,0,8.533-3.82,8.533-8.533s-3.82-8.533-8.533-8.533h-8.533c-4.713,0-8.533,3.821-8.533,8.533
				S217.156,42.668,221.868,42.668z"/>
			<path d="M477.606,93.868h-68.004V59.735V33.802c0-18.665-15.136-33.801-33.801-33.801H153.269
				c-18.665,0-33.801,15.136-33.801,33.801v25.933v17.067c-4.713,0-8.533,3.82-8.533,8.533v8.533c0,4.713,3.82,8.533,8.533,8.533
				v8.533c-4.713,0-8.533,3.82-8.533,8.533v8.533c0,4.713,3.82,8.533,8.533,8.533v42.667h-85.07C15.4,179.202,0,194.602,0,213.6
				v118.938c0,18.998,15.4,34.398,34.398,34.398h85.07v68.267v43c0,18.667,15.137,33.8,33.809,33.8h222.524
				c18.665,0,33.801-15.136,33.801-33.8v-43v-153.6h68.004c18.998,0,34.398-15.4,34.398-34.398V128.266
				C512.003,109.269,496.603,93.868,477.606,93.868z M153.269,17.068h222.532c9.239,0,16.734,7.495,16.734,16.734v17.399h-256
				V33.802C136.535,24.563,144.03,17.068,153.269,17.068z M17.067,332.537V213.6c0-9.572,7.759-17.331,17.331-17.331h93.604h59.467
				c9.572,0,17.331,7.759,17.331,17.331v118.938c0,9.572-7.759,17.331-17.331,17.331c-3.489,0-6.627,2.124-7.923,5.364
				l-9.143,22.857l-9.143-22.857c-1.296-3.24-4.434-5.364-7.923-5.364h-0.002h-25.334H34.398
				C24.826,349.868,17.067,342.109,17.067,332.537z M136.535,478.201v-34.466h105.434c-7.09,6.254-11.567,15.401-11.567,25.6
				s4.477,19.346,11.567,25.6h-88.692C144.031,494.935,136.535,487.441,136.535,478.201z M264.535,486.402
				c-9.427,0-17.067-7.64-17.067-17.067s7.64-17.067,17.067-17.067c9.427,0,17.067,7.64,17.067,17.067
				S273.962,486.402,264.535,486.402z M375.801,494.935h-88.7c7.09-6.254,11.567-15.401,11.567-25.6s-4.477-19.346-11.567-25.6
				h105.434v34.466C392.535,487.44,385.04,494.935,375.801,494.935z M392.535,426.668h-256v-59.733h11.023l14.921,37.303
				c1.431,3.576,4.677,5.364,7.924,5.364c3.247,0,6.493-1.788,7.924-5.364l15.129-37.821c16.145-2.832,28.413-16.923,28.413-33.879
				V213.6c0-18.998-15.4-34.398-34.398-34.398h-0.002h-50.934V68.268h256v25.6h-68h-0.002c-18.998,0-34.398,15.4-34.398,34.398
				v118.938c0,16.956,12.268,31.047,28.413,33.879l15.129,37.821c1.431,3.576,4.677,5.364,7.924,5.364
				c3.247,0,6.493-1.788,7.924-5.364l14.921-37.302h28.09V426.668z M494.937,247.204c0,9.572-7.759,17.331-17.331,17.331h-76.537
				h-42.4h-0.002c-3.489,0-6.627,2.124-7.923,5.364l-9.143,22.857l-9.143-22.857c-1.296-3.24-4.434-5.364-7.923-5.364
				c-9.572,0-17.331-7.759-17.331-17.331V128.266c0-9.572,7.759-17.331,17.331-17.331h76.534h76.537
				c9.572,0,17.331,7.759,17.331,17.331V247.204z"/>
			<path d="M168.169,215.834c-3.332-3.332-8.735-3.332-12.068,0l-102.4,102.4c-3.332,3.332-3.332,8.735,0,12.068
				c3.333,3.332,8.735,3.332,12.068,0l102.4-102.4C171.502,224.57,171.502,219.167,168.169,215.834z"/>
			<path d="M76.802,264.535c14.134,0,25.6-11.466,25.6-25.6s-11.466-25.6-25.6-25.6c-14.134,0-25.6,11.466-25.6,25.6
				S62.668,264.535,76.802,264.535z M76.802,230.402c4.708,0,8.533,3.825,8.533,8.533c0,4.708-3.825,8.533-8.533,8.533
				c-4.708,0-8.533-3.825-8.533-8.533C68.268,234.227,72.094,230.402,76.802,230.402z"/>
			<path d="M170.668,307.202c0-14.134-11.466-25.6-25.6-25.6c-14.134,0-25.6,11.466-25.6,25.6s11.466,25.6,25.6,25.6
				C159.202,332.802,170.668,321.335,170.668,307.202z M136.535,307.202c0-4.708,3.825-8.533,8.533-8.533
				c4.708,0,8.533,3.825,8.533,8.533c0,4.708-3.825,8.533-8.533,8.533C140.36,315.735,136.535,311.91,136.535,307.202z"/>
			<path d="M448.452,128.903l-49.398,24.699h-49.186c-4.713,0-8.533,3.82-8.533,8.533v51.2c0,4.713,3.82,8.533,8.533,8.533h49.186
				l49.398,24.699c5.674,2.837,12.35-1.289,12.35-7.632v-102.4C460.802,130.192,454.126,126.066,448.452,128.903z M443.735,225.128
				l-38.85-19.425c-1.185-0.592-2.491-0.901-3.816-0.901h-42.667v-34.133h42.667c1.325,0,2.631-0.308,3.816-0.901l38.85-19.425
				V225.128z"/>
		</g>
	</g>
</g>
<g>
</g>
<g>
</g>
<g>
</g>
<g>
</g>
<g>
</g>
<g>
</g>
<g>
</g>
<g>
</g>
<g>
</g>
<g>
</g>
<g>
</g>
<g>
</g>
<g>
</g>
<g>
</g>
<g>
</g>
</svg>
