<?xml version="1.0" encoding="iso-8859-1"?>
<!-- Generator: Adobe Illustrator 18.0.0, SVG Export Plug-In . SVG Version: 6.00 Build 0)  -->
<!DOCTYPE svg PUBLIC "-//W3C//DTD SVG 1.1//EN" "http://www.w3.org/Graphics/SVG/1.1/DTD/svg11.dtd">
<svg version="1.1" id="Capa_1" xmlns="http://www.w3.org/2000/svg" xmlns:xlink="http://www.w3.org/1999/xlink" x="0px" y="0px"
	 viewBox="0 0 490.977 490.977" style="enable-background:new 0 0 490.977 490.977;" xml:space="preserve">
<g>
	<path d="M476.238,307.612V53.419c8.35-1.402,14.738-8.662,14.738-17.403c0-9.742-7.926-17.668-17.668-17.668H17.668
		C7.926,18.348,0,26.274,0,36.016c0,8.742,6.389,16.001,14.738,17.403v254.192C6.389,309.014,0,316.274,0,325.016
		c0,9.742,7.926,17.667,17.668,17.667h141.324L93.216,466.382c-1.101,2.073-0.314,4.646,1.758,5.748
		c0.636,0.338,1.318,0.498,1.991,0.498c1.521,0,2.992-0.819,3.757-2.255l67.835-127.69h78.162v125.694c0,2.347,1.902,4.25,4.25,4.25
		c2.348,0,4.25-1.903,4.25-4.25V342.683h78.077l67.92,127.69c0.765,1.436,2.235,2.255,3.757,2.255c0.673,0,1.355-0.161,1.991-0.498
		c2.072-1.102,2.859-3.675,1.758-5.748l-65.776-123.699h130.363c9.742,0,17.668-7.925,17.668-17.667
		C490.977,316.274,484.588,309.014,476.238,307.612z M23.238,290.835h57.775c2.348,0,4.25-1.903,4.25-4.25
		c0-2.347-1.902-4.25-4.25-4.25H23.238V76.345h72.641c2.348,0,4.25-1.903,4.25-4.25c0-2.347-1.902-4.25-4.25-4.25H23.238V53.683
		h444.5v216.652H324.002c-2.348,0-4.25,1.903-4.25,4.25c0,2.347,1.902,4.25,4.25,4.25h143.736v28.513h-444.5V290.835z M8.5,36.016
		c0-5.055,4.112-9.168,9.168-9.168h455.641c5.056,0,9.168,4.113,9.168,9.168c0,5.055-4.112,9.167-9.168,9.167H17.668
		C12.612,45.183,8.5,41.071,8.5,36.016z M473.309,334.183H17.668c-5.056,0-9.168-4.112-9.168-9.167c0-5.055,4.112-9.168,9.168-9.168
		h455.641c5.056,0,9.168,4.113,9.168,9.168C482.477,330.071,478.364,334.183,473.309,334.183z"/>
	<path d="M151.969,89.127c-50.867,0-92.25,41.383-92.25,92.25s41.383,92.25,92.25,92.25s92.25-41.383,92.25-92.25
		S202.836,89.127,151.969,89.127z M147.719,97.735v80.266l-78.167,18.157c-0.859-4.802-1.333-9.735-1.333-14.781
		C68.219,136.623,103.506,99.956,147.719,97.735z M71.474,204.439l70.878-16.465l-40.863,60.177
		C87.225,237.34,76.533,222.071,71.474,204.439z M151.969,265.127c-15.902,0-30.782-4.457-43.46-12.185l45.157-66.499l76.102,25.88
		C217.431,243.225,187.219,265.127,151.969,265.127z M232.51,204.278l-76.291-25.945V97.735c44.213,2.221,79.5,38.888,79.5,83.642
		C235.719,189.318,234.584,196.994,232.51,204.278z"/>
	<path d="M283.469,138.627h133.5c2.348,0,4.25-1.903,4.25-4.25c0-2.347-1.902-4.25-4.25-4.25h-133.5c-2.348,0-4.25,1.903-4.25,4.25
		C279.219,136.725,281.121,138.627,283.469,138.627z"/>
	<path d="M421.219,209.377c0-2.347-1.902-4.25-4.25-4.25h-133.5c-2.348,0-4.25,1.903-4.25,4.25c0,2.347,1.902,4.25,4.25,4.25h133.5
		C419.316,213.627,421.219,211.725,421.219,209.377z"/>
</g>
<g>
</g>
<g>
</g>
<g>
</g>
<g>
</g>
<g>
</g>
<g>
</g>
<g>
</g>
<g>
</g>
<g>
</g>
<g>
</g>
<g>
</g>
<g>
</g>
<g>
</g>
<g>
</g>
<g>
</g>
</svg>
