<?xml version="1.0" encoding="iso-8859-1"?>
<!-- Generator: Adobe Illustrator 19.0.0, SVG Export Plug-In . SVG Version: 6.00 Build 0)  -->
<svg version="1.1" id="Capa_1" xmlns="http://www.w3.org/2000/svg" xmlns:xlink="http://www.w3.org/1999/xlink" x="0px" y="0px"
	 viewBox="0 0 60 60" style="enable-background:new 0 0 60 60;" xml:space="preserve">
<g>
	<g>
		<path d="M59,0H1C0.4,0,0,0.4,0,1v37v10c0,0.6,0.4,1,1,1h36v10c0,0.4,0.2,0.8,0.6,0.9C37.7,60,37.9,60,38,60c0.3,0,0.5-0.1,0.7-0.3
			L49.4,49H59c0.6,0,1-0.4,1-1V38V1C60,0.4,59.6,0,59,0z M2,2h56v35h-4V22c0-0.6-0.4-1-1-1h-5c-0.6,0-1,0.4-1,1v3h-4
			c-0.6,0-1,0.4-1,1v3h-4c-0.6,0-1,0.4-1,1v7H2V2z M44,37v-7v-3h3v10H44z M39,37v-6h3v6H39z M49,26v-3h3v14h-3V26z M58,47h-9
			c-0.3,0-0.5,0.1-0.7,0.3L39,56.6V48c0-0.6-0.4-1-1-1H2v-8h36h5h5h5h5V47z"/>
		<rect x="6" y="42" width="47" height="2"/>
		<path d="M25.5,26.9c0.1,0,0.3,0.1,0.5,0.1s0.3,0,0.5-0.1l11-5.5c0.4-0.2,0.6-0.5,0.6-0.9s-0.3-0.7-0.6-0.9l-11-5.5
			c-0.3-0.2-0.7-0.2-1,0S25,14.7,25,15v11C25,26.3,25.2,26.7,25.5,26.9z M27,16.6l7.8,3.9L27,24.4V16.6z"/>
		<rect x="6" y="7" width="8" height="2"/>
		<rect x="6" y="12" width="13" height="2"/>
		<rect x="6" y="17" width="13" height="2"/>
		<rect x="6" y="22" width="13" height="2"/>
		<rect x="6" y="32" width="3" height="2"/>
		<rect x="12" y="32" width="3" height="2"/>
		<rect x="18" y="32" width="3" height="2"/>
		<rect x="24" y="32" width="3" height="2"/>
		<path d="M47,18c3.3,0,6-2.7,6-6s-2.7-6-6-6s-6,2.7-6,6S43.7,18,47,18z M50.9,11H48V8.1C49.4,8.5,50.5,9.6,50.9,11z M46,8.1V12
			c0,0.6,0.4,1,1,1h3.9c-0.4,1.7-2,3-3.9,3c-2.2,0-4-1.8-4-4C43,10.1,44.3,8.6,46,8.1z"/>
	</g>
</g>
<g>
</g>
<g>
</g>
<g>
</g>
<g>
</g>
<g>
</g>
<g>
</g>
<g>
</g>
<g>
</g>
<g>
</g>
<g>
</g>
<g>
</g>
<g>
</g>
<g>
</g>
<g>
</g>
<g>
</g>
</svg>
